<svg width="232" height="184" viewBox="0 0 232 184" fill="none" xmlns="http://www.w3.org/2000/svg">
<path d="M222.484 0.00351976C220.079 0.0751838 217.793 1.17547 216.109 3.07191L137 73L74.4345 138L16.1442 95.047C15.3007 94.0202 14.277 93.1932 13.135 92.6161C11.993 92.0389 10.7566 91.7238 9.5009 91.6897C8.24515 91.6556 6.99622 91.9032 5.82988 92.4177C4.66354 92.9321 3.60412 93.7025 2.7159 94.6823C1.82768 95.662 1.12919 96.8306 0.662814 98.1171C0.196435 99.4036 -0.0281085 100.781 0.00280948 102.166C0.0337275 103.551 0.319462 104.915 0.842675 106.175C1.36589 107.434 2.11567 108.564 3.04652 109.494L35.4661 145.254L67.8856 181.013C69.6239 182.926 71.9791 184 74.4345 184C76.8898 184 79.245 182.926 80.9833 181.013L153 98.1171L229.207 17.5445C230.54 16.1078 231.45 14.2613 231.818 12.2457C232.185 10.2302 231.994 8.13914 231.268 6.24543C230.542 4.35172 229.316 2.74323 227.749 1.62978C226.182 0.516325 224.347 -0.0504033 222.484 0.00351976Z" fill="#58D75D"/>
</svg>
